<?xml version="1.0" encoding="UTF-8"?>
<svg id="Layer_1" data-name="Layer 1" xmlns="http://www.w3.org/2000/svg" viewBox="0 0 154.92 157.05">
  <defs>
    <style>
      .cls-1 {
        fill: #fff;
      }

      .cls-1, .cls-2 {
        stroke-width: 0px;
      }

      .cls-2 {
        fill: #0a8443;
      }
    </style>
  </defs>
  <g id="Path_71794" data-name="Path 71794">
    <path class="cls-2" d="m140.98,93.14c-8.71,37.37-46.07,60.61-83.45,51.89C20.16,136.32-3.08,98.96,5.64,61.58,14.35,24.21,51.71.98,89.08,9.69c0,0,.02,0,.03,0,37.36,8.72,60.58,46.08,51.87,83.44"/>
  </g>
  <g id="Path_71795" data-name="Path 71795">
    <path class="cls-1" d="m72.64,40.49c0,4.62-3.75,8.38-8.37,8.38-4.62,0-8.38-3.75-8.38-8.37s3.75-8.38,8.37-8.38h0c4.62,0,8.37,3.75,8.37,8.37"/>
  </g>
  <g id="Path_71796" data-name="Path 71796">
    <path class="cls-1" d="m113.3,104.08l-15.59-26.3c-.54-.92-1.49-1.53-2.56-1.63l-.35-.03-16.11-1.53-1.59-7.45,9.33-.17c3.73-.07,6.7-3.15,6.63-6.88l-17.39.33-.71-3.35c-.85-4.01-4.79-6.57-8.8-5.72-.04,0-.08.02-.12.03l-3.96.91,7.01,28.41.14.55c.56,2.28,2.72,3.81,5.06,3.59l18.7-1.78,11.06,18.66c1.9,3.21,6.04,4.27,9.25,2.37Z"/>
  </g>
  <g>
    <g id="Path_71797" data-name="Path 71797">
      <path class="cls-1" d="m82.71,97.52c-5.9,6.05,6.68,1.09,8.46-4.53.72-2.33-.59-4.81-2.92-5.53-.39-.12-.79-.19-1.2-.19-.1,3.84-1.65,7.5-4.33,10.25"/>
    </g>
    <path class="cls-1" d="m66.66,109.58c-14.61,0-26.5-11.89-26.5-26.5,0-11.5,7.67-21.91,18.66-25.31l1.45,4.67c-8.96,2.77-15.21,11.26-15.21,20.64,0,11.91,9.69,21.6,21.6,21.6,8.75,0,16.81-5.46,20.06-13.58l4.54,1.82c-4.05,10.11-13.7,16.65-24.6,16.65Z"/>
  </g>
</svg>