<?xml version="1.0" encoding="UTF-8"?>
<svg id="Layer_1" data-name="Layer 1" xmlns="http://www.w3.org/2000/svg" viewBox="0 0 16 16">
  <defs>
    <style>
      .cls-1 {
        stroke-width: 0px;
      }
    </style>
  </defs>
  <path class="cls-1" d="m14.71,9.73l-.5-.83c-.43-.73-.7-1.53-.81-2.42l-.21-1.87C12.9,1.96,10.67-.04,8-.04S3.1,1.96,2.8,4.61l-.21,1.91c-.1.84-.37,1.64-.82,2.41l-.48.8c-.49.82-.76,1.27-.68,1.79.05.35.23.66.5.88.4.34.93.34,1.89.34h1.14c.05.3.12.59.24.88.2.48.48.91.85,1.27.36.37.79.65,1.27.85.48.2.98.3,1.5.3s1.02-.1,1.5-.3c.48-.2.91-.49,1.27-.85.37-.37.65-.79.85-1.27.12-.28.19-.58.24-.88h1.14c.96,0,1.49,0,1.89-.34.27-.22.45-.54.5-.89.08-.52-.19-.97-.68-1.79Zm-4.24,3.42c-.14.33-.33.62-.58.87-.25.25-.54.44-.87.58-.65.27-1.39.27-2.04,0-.33-.14-.62-.33-.87-.58s-.44-.54-.58-.87c-.05-.13-.09-.26-.12-.4h5.18c-.03.13-.07.27-.12.4Zm3.64-1.7c-.12.06-.62.06-1.1.06H3c-.49,0-.99,0-1.09-.05-.04-.03-.06-.07-.07-.1.01-.13.27-.56.52-.98l.5-.84c.52-.88.85-1.85.97-2.92l.21-1.87c.22-2.02,1.92-3.54,3.95-3.54s3.73,1.52,3.95,3.54l.21,1.92c.12,1.02.44,1.98.99,2.91l.48.79c.25.42.51.85.52.96,0,.05-.03.09-.05.11Z"/>
</svg>