<?xml version="1.0" encoding="UTF-8"?>
<svg id="Layer_1" data-name="Layer 1" xmlns="http://www.w3.org/2000/svg" viewBox="0 0 16 16">
  <defs>
    <style>
      .cls-1 {
        stroke-width: 0px;
      }
    </style>
  </defs>
  <path class="cls-1" d="m13.89,11.33v-4.63h1.11s0,0,0,0c.34,0,.62-.28.62-.62,0-.18-.07-.34-.19-.45-.04-.07-.09-.13-.16-.18L8.3.27c-.22-.16-.5-.15-.72-.01-.07.02-.14.05-.2.09L.57,5.41s-.05.06-.08.08c-.02.02-.03.03-.05.05-.02.03-.04.05-.05.08-.06.09-.1.2-.1.32,0,.35.27.63.62.63h1.39v4.73c-1.19.04-2.15,1.02-2.15,2.31s1,2.23,2.23,2.23h11.24c1.23,0,2.23-1,2.23-2.32,0-1.14-.86-2.07-1.96-2.21Zm-1.25-.03h-2.31v-4.64l2.31.02v4.62ZM7.9,1.53l5.26,3.91-10.4-.09L7.9,1.53Zm1.18,5.12v4.65h-2.31v-4.67l2.31.02Zm-3.56-.03v4.68h-1.96v-4.69l1.96.02Zm8.1,7.98H2.38c-.54,0-.98-.44-.98-1.07,0-.54.44-.98.98-.98h11.24c.54,0,.98.44.98,1.07,0,.54-.44.98-.98.98Z"/>
</svg>